<svg xmlns="http://www.w3.org/2000/svg" width="32" height="32" viewBox="0 0 32 32"><g fill="none"><path fill="url(#f624id0)" d="M29.757 15.75c0 7.732-6.268 14-14 14s-14-6.268-14-14s6.268-14 14-14s14 6.268 14 14"/><path fill="url(#f624id4)" d="M29.757 15.75c0 7.732-6.268 14-14 14s-14-6.268-14-14s6.268-14 14-14s14 6.268 14 14"/><path fill="url(#f624id1)" d="M29.757 15.75c0 7.732-6.268 14-14 14s-14-6.268-14-14s6.268-14 14-14s14 6.268 14 14"/><path fill="url(#f624id2)" d="M29.757 15.75c0 7.732-6.268 14-14 14s-14-6.268-14-14s6.268-14 14-14s14 6.268 14 14"/><path fill="url(#f624id3)" d="M29.757 15.75c0 7.732-6.268 14-14 14s-14-6.268-14-14s6.268-14 14-14s14 6.268 14 14"/><defs><radialGradient id="f624id0" cx="0" cy="0" r="1" gradientTransform="rotate(130.168 9.994 9.81)scale(27.8086)" gradientUnits="userSpaceOnUse"><stop offset=".19" stop-color="#5ae68d"/><stop offset=".835" stop-color="#43a684"/></radialGradient><radialGradient id="f624id1" cx="0" cy="0" r="1" gradientTransform="rotate(136.38 10.117 10.14)scale(14.6767 15.816)" gradientUnits="userSpaceOnUse"><stop offset=".179" stop-color="#6ffca5"/><stop offset="1" stop-color="#65e6a7" stop-opacity="0"/></radialGradient><radialGradient id="f624id2" cx="0" cy="0" r="1" gradientTransform="matrix(-19.25 0 0 -20 20.249 15.75)" gradientUnits="userSpaceOnUse"><stop offset=".62" stop-color="#64cb85" stop-opacity="0"/><stop offset=".951" stop-color="#a4e4b7"/></radialGradient><radialGradient id="f624id3" cx="0" cy="0" r="1" gradientTransform="matrix(0 22.1875 -22.9876 0 15.757 8.75)" gradientUnits="userSpaceOnUse"><stop offset=".732" stop-color="#4a9795" stop-opacity="0"/><stop offset="1" stop-color="#718cad"/></radialGradient><linearGradient id="f624id4" x1="15.757" x2="15.757" y1="1.75" y2="8.25" gradientUnits="userSpaceOnUse"><stop stop-color="#5ed284"/><stop offset="1" stop-color="#5ed284" stop-opacity="0"/></linearGradient></defs></g></svg>